<svg width="151" height="43" viewBox="0 0 151 43" fill="none" xmlns="http://www.w3.org/2000/svg">
<path d="M42.3817 21.2311C42.3739 27.3801 39.7483 32.913 35.5565 36.7761C35.5541 36.7736 35.5492 36.7736 35.5444 36.7712C26.6927 34.0757 28.357 29.2515 28.357 29.2515C28.357 29.2515 31.6372 25.1685 31.4609 22.3381C31.3536 20.6554 31.0726 19.8722 30.859 19.5169C30.7523 19.3369 30.5116 19.2879 30.3413 19.4117C29.1683 20.2807 24.4758 24.0094 25.9719 27.2547C25.9719 27.2547 27.9706 31.0065 27.687 32.2145C27.687 32.2145 21.6672 28.1513 23.8614 21.4678C23.8614 21.4678 27.9346 19.0902 27.5769 15.4475C27.2169 11.8048 25.6476 10.6698 25.6476 10.6698C25.6476 10.6698 22.07 13.3957 22.1337 16.8532C22.1382 17.111 22.1841 17.3663 22.2665 17.6096C22.499 18.2979 23.0196 20.037 22.7047 21.0165C22.3141 22.2293 22.8231 25.3859 22.8448 25.5293C22.7551 25.3493 19.8133 19.413 20.0257 18.7276C20.2406 18.0325 21.0252 14.7414 19.786 12.2233C18.8984 10.4181 17.346 9.36089 16.5394 8.90763C16.2576 8.74923 15.9024 8.87035 15.7805 9.16926C15.2049 10.5471 13.9309 14.3288 16.0066 16.8114C18.5849 19.8928 21.039 21.1384 22.4725 27.7439C22.4725 27.7439 20.9108 26.3755 19.8696 24.9104C18.8551 23.4819 14.7832 19.0589 9.9789 22.8166C9.828 22.9356 9.88119 23.1739 10.0684 23.2155C10.9628 23.4233 13.0165 24.1407 15.243 26.5482C15.782 27.13 16.5816 27.3887 17.3575 27.2244C18.5249 26.9754 20.1373 26.6589 20.6332 26.696C21.4428 26.7579 28.3936 34.8486 28.3936 34.8486L27.302 34.7767C27.0322 34.7594 26.7868 34.6205 26.629 34.4039C26.3402 33.9999 25.7697 33.3305 24.9411 32.8918C24.1612 32.4799 23.2348 32.4447 22.4053 32.7549C20.9945 33.2856 18.2042 34.4394 17.5463 35.5351C17.4562 35.6858 17.5435 35.878 17.7136 35.9073C18.404 36.0225 20.2807 36.2923 23.174 36.3568C23.2104 36.3593 23.2469 36.3569 23.2809 36.3545C23.704 36.3234 26.391 36.0958 27.1115 35.4816C27.2624 35.3529 27.457 35.2851 27.6564 35.2732C28.6217 35.2088 31.2135 35.3142 34.5318 37.6501C30.8834 40.6093 26.2323 42.3832 21.1677 42.3768C9.48002 42.3669 0.0120289 32.8724 0.0268363 21.1774C0.0416438 9.48243 9.53365 0.012003 21.2311 0.0268136C32.9285 0.0416241 42.3965 9.53606 42.3817 21.2311Z" fill="#24BEE0"/>
<path d="M71.7779 14.7813L71.7605 28.5259L69.5066 28.5231L69.5186 19.1087L65.3149 28.5178L63.7515 28.5158L59.5498 19.0961L59.5379 28.5105L57.284 28.5076L57.3014 14.7629L59.7352 14.766L64.5479 25.5505L69.3684 14.7782L71.7779 14.7813Z" fill="black"/>
<path d="M84.6433 23.9347L76.3183 23.9242C76.3828 24.7947 76.7053 25.4929 77.2857 26.0213C77.8662 26.5496 78.5758 26.8131 79.4195 26.8142C80.6327 26.8157 81.4892 26.3087 81.9914 25.2954L84.4228 25.2985C84.0908 26.2998 83.4941 27.1209 82.6302 27.7592C81.7662 28.3976 80.6936 28.7172 79.4146 28.7155C78.374 28.7142 77.4407 28.4796 76.617 28.0093C75.7934 27.5415 75.1474 26.8793 74.6817 26.0302C74.2135 25.1786 73.9813 24.1936 73.9828 23.0727C73.9842 21.9518 74.214 20.9674 74.6697 20.117C75.1255 19.2666 75.7658 18.6133 76.5906 18.1524C77.4154 17.6915 78.3615 17.4617 79.4289 17.4631C80.4574 17.4644 81.3737 17.6892 82.1779 18.14C82.9822 18.5884 83.6062 19.219 84.055 20.0316C84.5014 20.8443 84.7263 21.7758 84.725 22.831C84.722 23.2346 84.6948 23.6041 84.6433 23.9347ZM82.3699 22.1108C82.3588 21.2792 82.0605 20.6151 81.4825 20.111C80.902 19.6094 80.1851 19.3581 79.3268 19.357C78.5488 19.356 77.8822 19.6032 77.3273 20.096C76.7723 20.5889 76.4432 21.2596 76.3351 22.1031L82.3699 22.1108Z" fill="black"/>
<path d="M86.8726 20.1397C87.3284 19.2966 87.9492 18.6409 88.7351 18.1751C89.5211 17.7092 90.3942 17.4745 91.3571 17.4757C92.0695 17.4766 92.7719 17.6331 93.4621 17.9428C94.1546 18.2549 94.7036 18.6665 95.1114 19.18L95.1181 13.9209L97.3914 13.9238L97.3729 28.5583L95.0995 28.5554L95.1016 26.9143C94.7314 27.4414 94.2202 27.876 93.5682 28.218C92.9161 28.56 92.1671 28.7292 91.3234 28.7282C90.3751 28.727 89.5074 28.4852 88.7227 28.0027C87.938 27.5203 87.3212 26.8485 86.8652 25.9823C86.4117 25.1186 86.1843 24.1385 86.1857 23.0443C86.1871 21.9527 86.4169 20.9828 86.8726 20.1397ZM94.6421 21.1391C94.334 20.5844 93.9285 20.1632 93.428 19.8708C92.9275 19.5808 92.3879 19.4343 91.8068 19.4335C91.2257 19.4328 90.6858 19.5731 90.1845 19.857C89.6833 20.1408 89.2768 20.5536 88.9673 21.1003C88.6578 21.647 88.5014 22.296 88.5004 23.0473C88.4995 23.7986 88.6542 24.4577 88.9623 25.0246C89.2704 25.5915 89.6783 26.0248 90.1861 26.3221C90.6939 26.6193 91.231 26.7683 91.7975 26.7691C92.3786 26.7698 92.9186 26.6246 93.4198 26.3359C93.9211 26.0472 94.3276 25.6222 94.6371 25.0609C94.9466 24.5021 95.1031 23.8458 95.104 23.0945C95.105 22.3457 94.9526 21.6914 94.6421 21.1391Z" fill="black"/>
<path d="M102.607 17.6675L100.353 17.6646L100.339 28.5621L102.593 28.565L102.607 17.6675Z" fill="black"/>
<path d="M105.709 19.7937C106.165 18.9433 106.796 18.2901 107.601 17.8291C108.407 17.3682 109.328 17.1384 110.371 17.1397C111.689 17.1414 112.781 17.4564 113.643 18.0824C114.505 18.7107 115.088 19.6038 115.39 20.764L112.956 20.7609C112.76 20.2209 112.444 19.7974 112.01 19.4929C111.575 19.1885 111.028 19.037 110.369 19.0362C109.445 19.035 108.71 19.3599 108.162 20.0132C107.615 20.6642 107.339 21.578 107.337 22.7524C107.336 23.9267 107.607 24.8437 108.156 25.5033C108.702 26.1629 109.436 26.4945 110.36 26.4957C111.665 26.4973 112.529 25.9246 112.954 24.7775L115.387 24.7806C115.07 25.8889 114.476 26.7659 113.604 27.4189C112.733 28.0694 111.651 28.3962 110.36 28.3946C109.319 28.3933 108.395 28.1587 107.591 27.6884C106.787 27.2206 106.158 26.5585 105.704 25.7093C105.251 24.8578 105.024 23.8728 105.025 22.7519C105.024 21.6286 105.254 20.6442 105.709 19.7937Z" fill="black"/>
<path d="M119.695 17.6891L117.441 17.6862L117.427 28.5837L119.681 28.5866L119.695 17.6891Z" fill="black"/>
<path d="M130.463 18.0577C131.141 18.4136 131.67 18.9418 132.053 19.6426C132.434 20.3409 132.625 21.1848 132.624 22.1744L132.616 28.603L130.381 28.6002L130.389 22.5095C130.39 21.5345 130.148 20.7854 129.66 20.2644C129.172 19.7435 128.506 19.4825 127.663 19.4814C126.819 19.4803 126.15 19.7397 125.653 20.2593C125.159 20.779 124.91 21.5276 124.909 22.5026L124.901 28.5932L122.647 28.5904L122.661 17.6929L124.915 17.6957L124.913 18.9406C125.283 18.4937 125.756 18.1442 126.33 17.8945C126.904 17.6447 127.514 17.5191 128.159 17.5199C129.017 17.5234 129.785 17.7019 130.463 18.0577Z" fill="black"/>
<path d="M145.397 24.0117L137.071 24.0011C137.136 24.8716 137.458 25.5699 138.039 26.0982C138.619 26.6265 139.329 26.89 140.173 26.8911C141.386 26.8926 142.242 26.3856 142.745 25.3723L145.176 25.3754C144.844 26.3767 144.247 27.1978 143.383 27.8361C142.519 28.4745 141.447 28.7941 140.168 28.7925C139.127 28.7911 138.194 28.5565 137.37 28.0862C136.547 27.6184 135.901 26.9562 135.435 26.1071C134.967 25.2555 134.735 24.2705 134.736 23.1496C134.737 22.0287 134.967 21.0443 135.423 20.1939C135.879 19.3435 136.519 18.6902 137.344 18.2293C138.169 17.7684 139.115 17.5386 140.182 17.54C141.211 17.5413 142.127 17.7661 142.931 18.2169C143.735 18.6653 144.359 19.2959 144.808 20.1085C145.255 20.9212 145.479 21.8527 145.478 22.9079C145.478 23.3115 145.45 23.6811 145.397 24.0117ZM143.125 22.1877C143.114 21.3561 142.816 20.692 142.238 20.1879C141.658 19.6863 140.941 19.435 140.082 19.4339C139.304 19.4329 138.638 19.6801 138.083 20.1729C137.528 20.6658 137.199 21.3365 137.091 22.18L143.125 22.1877Z" fill="black"/>
<path d="M147.567 28.3448C147.29 28.0673 147.152 27.7243 147.153 27.3158C147.153 26.9074 147.292 26.5647 147.57 26.2879C147.847 26.011 148.19 25.8729 148.599 25.8734C148.995 25.8739 149.331 26.0129 149.607 26.2905C149.884 26.568 150.022 26.911 150.022 27.3195C150.021 27.7279 149.882 28.0706 149.605 28.3474C149.327 28.6242 148.992 28.7624 148.595 28.7619C148.187 28.7614 147.844 28.6224 147.567 28.3448Z" fill="#0E97B5"/>
<path d="M118.578 16.2531C119.379 16.2541 120.028 15.604 120.029 14.801C120.03 13.998 119.382 13.3462 118.582 13.3452C117.782 13.3441 117.132 13.9943 117.131 14.7973C117.13 15.6003 117.778 16.2521 118.578 16.2531Z" fill="black"/>
<path d="M101.493 16.2314C102.293 16.2324 102.943 15.5823 102.944 14.7793C102.945 13.9763 102.297 13.3245 101.496 13.3235C100.696 13.3225 100.046 13.9726 100.045 14.7756C100.044 15.5786 100.692 16.2304 101.493 16.2314Z" fill="black"/>
</svg>
